<?xml version="1.0" standalone="no"?><!DOCTYPE svg PUBLIC "-//W3C//DTD SVG 1.1//EN" "http://www.w3.org/Graphics/SVG/1.1/DTD/svg11.dtd"><svg t="1699410593948" class="icon" viewBox="0 0 1024 1024" version="1.1" xmlns="http://www.w3.org/2000/svg" p-id="4029" xmlns:xlink="http://www.w3.org/1999/xlink" width="128" height="128"><path d="M399.082667 260.672L423.658667 298.666667H853.333333c23.530667 0 42.666667 19.136 42.666667 42.666666v469.333334c0 23.530667-19.136 42.666667-42.666667 42.666666H170.666667c-23.530667 0-42.666667-19.136-42.666667-42.666666V213.333333c0-23.530667 19.136-42.666667 42.666667-42.666666h170.666666l57.749334 90.005333zM384 85.333333H170.666667C99.946667 85.333333 42.666667 142.613333 42.666667 213.333333v597.333334c0 70.72 57.28 128 128 128h682.666666c70.72 0 128-57.28 128-128V341.333333c0-70.72-57.28-128-128-128H469.333333L384 85.333333z" p-id="4030" fill="#2c2c2c"></path></svg>